<?xml version="1.0" encoding="utf-8"?>
<!-- Generator: Adobe Illustrator 17.1.0, SVG Export Plug-In . SVG Version: 6.00 Build 0)  -->
<!DOCTYPE svg PUBLIC "-//W3C//DTD SVG 1.1//EN" "http://www.w3.org/Graphics/SVG/1.1/DTD/svg11.dtd">
<svg version="1.1" id="Layer_1" xmlns="http://www.w3.org/2000/svg" xmlns:xlink="http://www.w3.org/1999/xlink" x="0px" y="0px"
	 viewBox="0 0 120 120" enable-background="new 0 0 120 120" xml:space="preserve">
<g>
	<path fill="#FC2727" d="M60.2,3.6C29.1,3.6,3.9,28.8,3.9,59.9c0,11,3.2,21.3,8.6,29.9L48.4,54L32.7,38.4l15-15l49.1,49.1l-15,15
		L66.1,71.8l-35.8,35.8c8.7,5.5,18.9,8.6,29.9,8.6c31.1,0,56.3-25.2,56.3-56.3C116.6,28.8,91.3,3.6,60.2,3.6z"/>
	<path fill="#FFFFFF" d="M81.8,87.4l15-15L47.7,23.4l-15,15L48.4,54L12.5,89.9c4.5,7.2,10.6,13.3,17.8,17.8l35.8-35.8L81.8,87.4z"/>
</g>
<rect x="35.6" y="16.7" transform="matrix(0.7071 0.7071 -0.7071 0.7071 33.5252 -19.2711)" fill="#FFFFFF" width="8.8" height="28.3"/>
<rect x="85.1" y="66.1" transform="matrix(0.7071 0.7071 -0.7071 0.7071 82.9499 -39.7435)" fill="#FFFFFF" width="8.8" height="28.3"/>
<rect x="42.1" y="52" transform="matrix(-0.7071 0.7071 -0.7071 -0.7071 136.3687 81.1129)" fill="#FFFFFF" width="18.6" height="33.7"/>
</svg>
